<?xml version="1.0" encoding="UTF-8" standalone="no" ?>
<COLLADA xmlns="http://www.collada.org/2005/11/COLLADASchema" version="1.4.1">
    <asset>
        <contributor>
            <authoring_tool>SketchUp 25.0.660</authoring_tool>
        </contributor>
        <created>2025-11-10T16:18:13Z</created>
        <modified>2025-11-10T16:18:13Z</modified>
        <unit meter="0.0254" name="inch"/>
        <up_axis>Z_UP</up_axis>
    </asset>
    <library_cameras>
        <camera id="ID1" name="skp_camera_Last_Saved_SketchUp_View">
            <optics>
                <technique_common>
                    <perspective>
                        <yfov>35</yfov>
                        <aspect_ratio>0</aspect_ratio>
                        <znear>1</znear>
                        <zfar>1000</zfar>
                    </perspective>
                </technique_common>
            </optics>
        </camera>
    </library_cameras>
    <library_visual_scenes>
        <visual_scene id="ID2">
            <node name="SketchUp">
                <instance_geometry url="#ID3">
                    <bind_material>
                        <technique_common>
                            <instance_material symbol="Material2" target="#ID4">
                                <bind_vertex_input semantic="UVSET0" input_semantic="TEXCOORD" input_set="0"/>
                            </instance_material>
                            <instance_material symbol="Material3" target="#ID14">
                                <bind_vertex_input semantic="UVSET0" input_semantic="TEXCOORD" input_set="0"/>
                            </instance_material>
                        </technique_common>
                    </bind_material>
                </instance_geometry>
                <instance_geometry url="#ID18">
                    <bind_material>
                        <technique_common>
                            <instance_material symbol="Material2" target="#ID14">
                                <bind_vertex_input semantic="UVSET0" input_semantic="TEXCOORD" input_set="0"/>
                            </instance_material>
                            <instance_material symbol="Material3" target="#ID19">
                                <bind_vertex_input semantic="UVSET0" input_semantic="TEXCOORD" input_set="0"/>
                            </instance_material>
                        </technique_common>
                    </bind_material>
                </instance_geometry>
                <instance_geometry url="#ID31">
                    <bind_material>
                        <technique_common>
                            <instance_material symbol="Material2" target="#ID14">
                                <bind_vertex_input semantic="UVSET0" input_semantic="TEXCOORD" input_set="0"/>
                            </instance_material>
                            <instance_material symbol="Material3" target="#ID19">
                                <bind_vertex_input semantic="UVSET0" input_semantic="TEXCOORD" input_set="0"/>
                            </instance_material>
                        </technique_common>
                    </bind_material>
                </instance_geometry>
                <instance_geometry url="#ID39">
                    <bind_material>
                        <technique_common>
                            <instance_material symbol="Material2" target="#ID14">
                                <bind_vertex_input semantic="UVSET0" input_semantic="TEXCOORD" input_set="0"/>
                            </instance_material>
                            <instance_material symbol="Material3" target="#ID19">
                                <bind_vertex_input semantic="UVSET0" input_semantic="TEXCOORD" input_set="0"/>
                            </instance_material>
                        </technique_common>
                    </bind_material>
                </instance_geometry>
                <instance_geometry url="#ID47">
                    <bind_material>
                        <technique_common>
                            <instance_material symbol="Material2" target="#ID14">
                                <bind_vertex_input semantic="UVSET0" input_semantic="TEXCOORD" input_set="0"/>
                            </instance_material>
                            <instance_material symbol="Material3" target="#ID48">
                                <bind_vertex_input semantic="UVSET0" input_semantic="TEXCOORD" input_set="0"/>
                            </instance_material>
                        </technique_common>
                    </bind_material>
                </instance_geometry>
                <instance_geometry url="#ID60">
                    <bind_material>
                        <technique_common>
                            <instance_material symbol="Material2" target="#ID14">
                                <bind_vertex_input semantic="UVSET0" input_semantic="TEXCOORD" input_set="0"/>
                            </instance_material>
                            <instance_material symbol="Material3" target="#ID48">
                                <bind_vertex_input semantic="UVSET0" input_semantic="TEXCOORD" input_set="0"/>
                            </instance_material>
                        </technique_common>
                    </bind_material>
                </instance_geometry>
                <node name="skp_camera_Last_Saved_SketchUp_View">
                    <matrix>-0.3399286 -0.5351152 0.7733694 144.0597 0.9404513 -0.1934188 0.2795365 39.18513 5.551115e-17 0.8223386 0.5689983 152.2981 0 0 0 1</matrix>
                    <instance_camera url="#ID1"/>
                </node>
            </node>
        </visual_scene>
    </library_visual_scenes>
    <library_geometries>
        <geometry id="ID3">
            <mesh>
                <source id="ID9">
                    <float_array id="ID15" count="366">9.84252 3.937008 87.59843 4.92126 0 83.66142 9.84252 0 83.66142 4.92126 4.92126 88.58268 8.858268 4.92126 88.58268 8.858268 4.92126 88.58268 9.84252 3.937008 87.59843 4.92126 4.92126 88.58268 4.92126 0 83.66142 9.84252 0 83.66142 9.84252 18.70079 87.59843 8.858268 4.92126 88.58268 9.84252 3.937008 87.59843 8.858268 18.70079 88.58268 8.858268 18.70079 88.58268 9.84252 18.70079 87.59843 8.858268 4.92126 88.58268 9.84252 3.937008 87.59843 4.92126 4.92126 88.58268 4.92126 -4.92126 88.58268 4.92126 0 83.66142 4.92126 0 83.66142 4.92126 -4.92126 88.58268 4.92126 4.92126 88.58268 4.92126 -4.92126 88.58268 9.84252 0 83.66142 4.92126 0 83.66142 9.84252 -3.937008 87.59843 8.858268 -4.92126 88.58268 8.858268 -4.92126 88.58268 4.92126 -4.92126 88.58268 9.84252 -3.937008 87.59843 9.84252 0 83.66142 4.92126 0 83.66142 8.858268 19.68504 87.59843 8.858268 18.70079 88.58268 9.84252 18.70079 87.59843 9.84252 18.70079 87.59843 8.858268 18.70079 88.58268 8.858268 19.68504 87.59843 9.84252 -3.937008 87.59843 8.858268 -18.70079 88.58268 9.84252 -18.70079 87.59843 8.858268 -4.92126 88.58268 8.858268 -4.92126 88.58268 9.84252 -3.937008 87.59843 8.858268 -18.70079 88.58268 9.84252 -18.70079 87.59843 8.858268 19.68504 0 9.84252 18.70079 87.59843 9.84252 18.70079 0 8.858268 19.68504 87.59843 8.858268 19.68504 87.59843 8.858268 19.68504 0 9.84252 18.70079 87.59843 9.84252 18.70079 0 0.984252 18.70079 88.58268 8.858268 19.68504 87.59843 0.984252 19.68504 87.59843 8.858268 18.70079 88.58268 8.858268 18.70079 88.58268 0.984252 18.70079 88.58268 8.858268 19.68504 87.59843 0.984252 19.68504 87.59843 8.858268 -18.70079 88.58268 8.858268 -19.68504 87.59843 9.84252 -18.70079 87.59843 9.84252 -18.70079 87.59843 8.858268 -19.68504 87.59843 8.858268 -18.70079 88.58268 0.984252 19.68504 87.59843 0 18.70079 87.59843 0.984252 18.70079 88.58268 0.984252 18.70079 88.58268 0 18.70079 87.59843 0.984252 19.68504 87.59843 9.84252 -18.70079 0 8.858268 -19.68504 87.59843 8.858268 -19.68504 0 9.84252 -18.70079 87.59843 9.84252 -18.70079 87.59843 9.84252 -18.70079 0 8.858268 -19.68504 87.59843 8.858268 -19.68504 0 8.858268 -18.70079 88.58268 0.984252 -19.68504 87.59843 8.858268 -19.68504 87.59843 0.984252 -18.70079 88.58268 0.984252 -18.70079 88.58268 8.858268 -18.70079 88.58268 0.984252 -19.68504 87.59843 8.858268 -19.68504 87.59843 0.984252 19.68504 87.59843 0 18.70079 0 0 18.70079 87.59843 0.984252 19.68504 0 0.984252 19.68504 0 0.984252 19.68504 87.59843 0 18.70079 0 0 18.70079 87.59843 0.984252 18.70079 88.58268 0 -18.70079 87.59843 0.984252 -18.70079 88.58268 0 18.70079 87.59843 0 18.70079 87.59843 0.984252 18.70079 88.58268 0 -18.70079 87.59843 0.984252 -18.70079 88.58268 0 -18.70079 87.59843 0.984252 -19.68504 87.59843 0.984252 -18.70079 88.58268 0.984252 -18.70079 88.58268 0.984252 -19.68504 87.59843 0 -18.70079 87.59843 0 -18.70079 87.59843 0.984252 -19.68504 0 0.984252 -19.68504 87.59843 0 -18.70079 0 0 -18.70079 0 0 -18.70079 87.59843 0.984252 -19.68504 0 0.984252 -19.68504 87.59843</float_array>
                    <technique_common>
                        <accessor count="122" source="#ID15" stride="3">
                            <param name="X" type="float"/>
                            <param name="Y" type="float"/>
                            <param name="Z" type="float"/>
                        </accessor>
                    </technique_common>
                </source>
                <source id="ID10">
                    <float_array id="ID16" count="366">5.222346e-16 -0.7071068 0.7071068 5.222346e-16 -0.7071068 0.7071068 5.222346e-16 -0.7071068 0.7071068 5.222346e-16 -0.7071068 0.7071068 5.222346e-16 -0.7071068 0.7071068 -5.222346e-16 0.7071068 -0.7071068 -5.222346e-16 0.7071068 -0.7071068 -5.222346e-16 0.7071068 -0.7071068 -5.222346e-16 0.7071068 -0.7071068 -5.222346e-16 0.7071068 -0.7071068 0.7071068 1.589564e-18 0.7071068 0.7071068 1.589564e-18 0.7071068 0.7071068 1.589564e-18 0.7071068 0.7071068 1.589564e-18 0.7071068 -0.7071068 -1.589564e-18 -0.7071068 -0.7071068 -1.589564e-18 -0.7071068 -0.7071068 -1.589564e-18 -0.7071068 -0.7071068 -1.589564e-18 -0.7071068 1 -0 -0 1 -0 -0 1 -0 -0 -1 0 0 -1 0 0 -1 0 0 3.46913e-16 0.7071068 0.7071068 3.46913e-16 0.7071068 0.7071068 3.46913e-16 0.7071068 0.7071068 3.46913e-16 0.7071068 0.7071068 3.46913e-16 0.7071068 0.7071068 -3.46913e-16 -0.7071068 -0.7071068 -3.46913e-16 -0.7071068 -0.7071068 -3.46913e-16 -0.7071068 -0.7071068 -3.46913e-16 -0.7071068 -0.7071068 -3.46913e-16 -0.7071068 -0.7071068 0.5773503 0.5773503 0.5773503 0.5773503 0.5773503 0.5773503 0.5773503 0.5773503 0.5773503 -0.5773503 -0.5773503 -0.5773503 -0.5773503 -0.5773503 -0.5773503 -0.5773503 -0.5773503 -0.5773503 0.7071068 -0 0.7071068 0.7071068 -0 0.7071068 0.7071068 -0 0.7071068 0.7071068 -0 0.7071068 -0.7071068 0 -0.7071068 -0.7071068 0 -0.7071068 -0.7071068 0 -0.7071068 -0.7071068 0 -0.7071068 0.7071068 0.7071068 -5.729156e-17 0.7071068 0.7071068 -5.729156e-17 0.7071068 0.7071068 -5.729156e-17 0.7071068 0.7071068 -5.729156e-17 -0.7071068 -0.7071068 5.729156e-17 -0.7071068 -0.7071068 5.729156e-17 -0.7071068 -0.7071068 5.729156e-17 -0.7071068 -0.7071068 5.729156e-17 -0 0.7071068 0.7071068 -0 0.7071068 0.7071068 -0 0.7071068 0.7071068 -0 0.7071068 0.7071068 0 -0.7071068 -0.7071068 0 -0.7071068 -0.7071068 0 -0.7071068 -0.7071068 0 -0.7071068 -0.7071068 0.5773503 -0.5773503 0.5773503 0.5773503 -0.5773503 0.5773503 0.5773503 -0.5773503 0.5773503 -0.5773503 0.5773503 -0.5773503 -0.5773503 0.5773503 -0.5773503 -0.5773503 0.5773503 -0.5773503 -0.5773503 0.5773503 0.5773503 -0.5773503 0.5773503 0.5773503 -0.5773503 0.5773503 0.5773503 0.5773503 -0.5773503 -0.5773503 0.5773503 -0.5773503 -0.5773503 0.5773503 -0.5773503 -0.5773503 0.7071068 -0.7071068 0 0.7071068 -0.7071068 0 0.7071068 -0.7071068 0 0.7071068 -0.7071068 0 -0.7071068 0.7071068 -0 -0.7071068 0.7071068 -0 -0.7071068 0.7071068 -0 -0.7071068 0.7071068 -0 0 -0.7071068 0.7071068 0 -0.7071068 0.7071068 0 -0.7071068 0.7071068 0 -0.7071068 0.7071068 -0 0.7071068 -0.7071068 -0 0.7071068 -0.7071068 -0 0.7071068 -0.7071068 -0 0.7071068 -0.7071068 -0.7071068 0.7071068 0 -0.7071068 0.7071068 0 -0.7071068 0.7071068 0 -0.7071068 0.7071068 0 0.7071068 -0.7071068 -0 0.7071068 -0.7071068 -0 0.7071068 -0.7071068 -0 0.7071068 -0.7071068 -0 -0.7071068 -3.292934e-33 0.7071068 -0.7071068 -3.292934e-33 0.7071068 -0.7071068 -3.292934e-33 0.7071068 -0.7071068 -3.292934e-33 0.7071068 0.7071068 3.292934e-33 -0.7071068 0.7071068 3.292934e-33 -0.7071068 0.7071068 3.292934e-33 -0.7071068 0.7071068 3.292934e-33 -0.7071068 -0.5773503 -0.5773503 0.5773503 -0.5773503 -0.5773503 0.5773503 -0.5773503 -0.5773503 0.5773503 0.5773503 0.5773503 -0.5773503 0.5773503 0.5773503 -0.5773503 0.5773503 0.5773503 -0.5773503 -0.7071068 -0.7071068 0 -0.7071068 -0.7071068 0 -0.7071068 -0.7071068 0 -0.7071068 -0.7071068 0 0.7071068 0.7071068 -0 0.7071068 0.7071068 -0 0.7071068 0.7071068 -0 0.7071068 0.7071068 -0</float_array>
                    <technique_common>
                        <accessor count="122" source="#ID16" stride="3">
                            <param name="X" type="float"/>
                            <param name="Y" type="float"/>
                            <param name="Z" type="float"/>
                        </accessor>
                    </technique_common>
                </source>
                <source id="ID12">
                    <float_array id="ID17" count="122">0.125 0.8220116 0.0625 0.751301 0.125 0.751301 0.0625 0.8396893 0.1125 0.8396893 0.2375 0.6982679 0.0625 0.7159456 0.05 0.6982679 0.2375 0.7159456 0.0625 1.125 -0.0625 1.125 0 1.0625 -0.0625 0.8396893 -0.125 0.751301 -0.0625 0.751301 -0.125 0.8220116 -0.1125 0.8396893 0.09722718 0.7603624 0.08838835 0.7756718 0.07954951 0.7603624 -0.05 0.6982679 -0.2375 0.7159456 -0.2375 0.6982679 -0.0625 0.7159456 0.09722718 1.468533e-17 0.07954951 1.1125 0.07954951 1.468533e-17 0.09722718 1.1125 -0.0125 0.6275573 -0.1125 0.6098796 -0.0125 0.6098796 -0.1125 0.6275573 -0.08838835 0.7756718 -0.09722718 0.7603624 -0.07954951 0.7603624 -0.1856155 0.8113935 -0.1679379 0.8113935 -0.1767767 0.8267028 -0.07954951 0 -0.09722718 1.1125 -0.09722718 0 -0.07954951 1.1125 0.1125 0.6275573 0.0125 0.6098796 0.1125 0.6098796 0.0125 0.6275573 -0.1856155 1.1125 -0.1679379 0 -0.1679379 1.1125 -0.1856155 0 -0.2375 0.804334 0.2375 0.7866563 0.2375 0.804334 -0.2375 0.7866563 0.1679379 0.8113935 0.1856155 0.8113935 0.1767767 0.8267028 0.1679379 1.1125 0.1856155 0 0.1856155 1.1125 0.1679379 0</float_array>
                    <technique_common>
                        <accessor count="61" source="#ID17" stride="2">
                            <param name="S" type="float"/>
                            <param name="T" type="float"/>
                        </accessor>
                    </technique_common>
                </source>
                <vertices id="ID11">
                    <input semantic="POSITION" source="#ID9"/>
                    <input semantic="NORMAL" source="#ID10"/>
                </vertices>
                <triangles count="29" material="Material2">
                    <input offset="0" semantic="VERTEX" source="#ID11"/>
                    <input offset="1" semantic="TEXCOORD" source="#ID12"/>
                    <p>0 0 1 1 2 2 1 1 0 0 3 3 3 3 0 0 4 4 10 5 11 6 12 7 11 6 10 5 13 8 18 9 19 10 20 11 24 12 25 13 26 14 25 13 24 12 27 15 27 15 24 12 28 16 34 17 35 18 36 19 40 20 41 21 42 22 41 21 40 20 43 23 48 24 49 25 50 26 49 25 48 24 51 27 56 28 57 29 58 30 57 29 56 28 59 31 64 32 65 33 66 34 70 35 71 36 72 37 76 38 77 39 78 40 77 39 76 38 79 41 84 42 85 43 86 44 85 43 84 42 87 45 92 46 93 47 94 48 93 47 92 46 95 49 100 50 101 51 102 52 101 51 100 50 103 53 108 54 109 55 110 56 114 57 115 58 116 59 115 58 114 57 117 60</p>
                </triangles>
                <triangles count="29" material="Material3">
                    <input offset="0" semantic="VERTEX" source="#ID11"/>
                    <p>5 6 7 7 6 8 9 8 6 14 15 16 17 16 15 21 22 23 29 30 31 31 30 32 33 32 30 37 38 39 44 45 46 47 46 45 52 53 54 55 54 53 60 61 62 63 62 61 67 68 69 73 74 75 80 81 82 83 82 81 88 89 90 91 90 89 96 97 98 99 98 97 104 105 106 107 106 105 111 112 113 118 119 120 121 120 119</p>
                </triangles>
            </mesh>
        </geometry>
        <geometry id="ID18">
            <mesh>
                <source id="ID24">
                    <float_array id="ID28" count="48">0.984252 -18.70079 88.58268 4.92126 -4.92126 88.58268 0.984252 18.70079 88.58268 8.858268 -18.70079 88.58268 8.858268 -4.92126 88.58268 4.92126 4.92126 88.58268 8.858268 18.70079 88.58268 8.858268 4.92126 88.58268 8.858268 4.92126 88.58268 4.92126 4.92126 88.58268 8.858268 18.70079 88.58268 4.92126 -4.92126 88.58268 0.984252 18.70079 88.58268 8.858268 -4.92126 88.58268 8.858268 -18.70079 88.58268 0.984252 -18.70079 88.58268</float_array>
                    <technique_common>
                        <accessor count="16" source="#ID28" stride="3">
                            <param name="X" type="float"/>
                            <param name="Y" type="float"/>
                            <param name="Z" type="float"/>
                        </accessor>
                    </technique_common>
                </source>
                <source id="ID25">
                    <float_array id="ID29" count="48">-0 -0 1 -0 -0 1 -0 -0 1 -0 -0 1 -0 -0 1 -0 -0 1 -0 -0 1 -0 -0 1 0 0 -1 0 0 -1 0 0 -1 0 0 -1 0 0 -1 0 0 -1 0 0 -1 0 0 -1</float_array>
                    <technique_common>
                        <accessor count="16" source="#ID29" stride="3">
                            <param name="X" type="float"/>
                            <param name="Y" type="float"/>
                            <param name="Z" type="float"/>
                        </accessor>
                    </technique_common>
                </source>
                <source id="ID27">
                    <float_array id="ID30" count="16">0.02222222 -0.2111111 0.1111111 -0.05555556 0.02222222 0.2111111 0.2 -0.2111111 0.2 -0.05555556 0.1111111 0.05555556 0.2 0.2111111 0.2 0.05555556</float_array>
                    <technique_common>
                        <accessor count="8" source="#ID30" stride="2">
                            <param name="S" type="float"/>
                            <param name="T" type="float"/>
                        </accessor>
                    </technique_common>
                </source>
                <vertices id="ID26">
                    <input semantic="POSITION" source="#ID24"/>
                    <input semantic="NORMAL" source="#ID25"/>
                </vertices>
                <triangles count="6" material="Material3">
                    <input offset="0" semantic="VERTEX" source="#ID26"/>
                    <input offset="1" semantic="TEXCOORD" source="#ID27"/>
                    <p>0 0 1 1 2 2 1 1 0 0 3 3 1 1 3 3 4 4 2 2 5 5 6 6 5 5 2 2 1 1 6 6 5 5 7 7</p>
                </triangles>
                <triangles count="6" material="Material2">
                    <input offset="0" semantic="VERTEX" source="#ID26"/>
                    <p>8 9 10 11 12 9 10 9 12 13 14 11 14 15 11 12 11 15</p>
                </triangles>
            </mesh>
        </geometry>
        <geometry id="ID31">
            <mesh>
                <source id="ID32">
                    <float_array id="ID36" count="198">8.858268 -19.68504 87.59843 0.984252 -19.68504 0 8.858268 -19.68504 0 0.984252 -19.68504 87.59843 0.984252 -19.68504 87.59843 8.858268 -19.68504 87.59843 0.984252 -19.68504 0 8.858268 -19.68504 0 0.984252 19.68504 0 0 -18.70079 0 0 18.70079 0 0.984252 -19.68504 0 8.858268 19.68504 0 8.858268 -19.68504 0 9.84252 18.70079 0 9.84252 -18.70079 0 9.84252 -18.70079 0 9.84252 18.70079 0 8.858268 -19.68504 0 8.858268 19.68504 0 0.984252 -19.68504 0 0.984252 19.68504 0 0 -18.70079 0 0 18.70079 0 0 -18.70079 87.59843 0 -17.71654 19.68504 0 -18.70079 0 0 18.70079 87.59843 0 17.71654 19.68504 0 -7.105427e-15 1.968504 0 18.70079 0 0 18.70079 87.59843 0 17.71654 19.68504 0 18.70079 0 0 -7.105427e-15 1.968504 0 -17.71654 19.68504 0 -18.70079 0 0 -18.70079 87.59843 0.984252 19.68504 87.59843 8.858268 19.68504 0 0.984252 19.68504 0 8.858268 19.68504 87.59843 8.858268 19.68504 87.59843 0.984252 19.68504 87.59843 8.858268 19.68504 0 0.984252 19.68504 0 9.84252 -18.70079 0 9.84252 -17.71654 19.68504 9.84252 -18.70079 87.59843 9.84252 -7.105427e-15 1.968504 9.84252 18.70079 0 9.84252 17.71654 19.68504 9.84252 -3.937008 87.59843 9.84252 0 83.66142 9.84252 3.937008 87.59843 9.84252 18.70079 87.59843 9.84252 18.70079 0 9.84252 17.71654 19.68504 9.84252 18.70079 87.59843 9.84252 3.937008 87.59843 9.84252 0 83.66142 9.84252 -3.937008 87.59843 9.84252 -17.71654 19.68504 9.84252 -18.70079 87.59843 9.84252 -7.105427e-15 1.968504 9.84252 -18.70079 0</float_array>
                    <technique_common>
                        <accessor count="66" source="#ID36" stride="3">
                            <param name="X" type="float"/>
                            <param name="Y" type="float"/>
                            <param name="Z" type="float"/>
                        </accessor>
                    </technique_common>
                </source>
                <source id="ID33">
                    <float_array id="ID37" count="198">0 -1 0 0 -1 0 0 -1 0 0 -1 0 -0 1 -0 -0 1 -0 -0 1 -0 -0 1 -0 0 0 -1 0 0 -1 0 0 -1 0 0 -1 0 0 -1 0 0 -1 0 0 -1 0 0 -1 -0 -0 1 -0 -0 1 -0 -0 1 -0 -0 1 -0 -0 1 -0 -0 1 -0 -0 1 -0 -0 1 -1 0 0 -1 0 0 -1 0 0 -1 0 0 -1 0 0 -1 0 0 -1 0 0 1 -0 -0 1 -0 -0 1 -0 -0 1 -0 -0 1 -0 -0 1 -0 -0 1 -0 -0 -0 1 -0 -0 1 -0 -0 1 -0 -0 1 -0 0 -1 0 0 -1 0 0 -1 0 0 -1 0 1 -0 -0 1 -0 -0 1 -0 -0 1 -0 -0 1 -0 -0 1 -0 -0 1 -0 -0 1 -0 -0 1 -0 -0 1 -0 -0 -1 0 0 -1 0 0 -1 0 0 -1 0 0 -1 0 0 -1 0 0 -1 0 0 -1 0 0 -1 0 0 -1 0 0</float_array>
                    <technique_common>
                        <accessor count="66" source="#ID37" stride="3">
                            <param name="X" type="float"/>
                            <param name="Y" type="float"/>
                            <param name="Z" type="float"/>
                        </accessor>
                    </technique_common>
                </source>
                <source id="ID35">
                    <float_array id="ID38" count="66">0.2 0.9888889 0.02222222 0 0.2 0 0.02222222 0.9888889 -0.02222222 0.2222222 0 -0.2111111 0 0.2111111 -0.02222222 -0.2222222 -0.2 0.2222222 -0.2 -0.2222222 -0.2222222 0.2111111 -0.2222222 -0.2111111 0.4222222 0.9888889 0.4 0.2222222 0.4222222 0 -0.4222222 0.9888889 -0.4 0.2222222 1.604248e-16 0.02222222 -0.4222222 0 -0.02222222 0.9888889 -0.2 0 -0.02222222 0 -0.2 0.9888889 0.02222222 0 0.04444444 0.2222222 0.02222222 0.9888889 0.4444444 0.02222222 0.8666667 0 0.8444444 0.2222222 0.3555556 0.9888889 0.4444444 0.9444444 0.5333333 0.9888889 0.8666667 0.9888889</float_array>
                    <technique_common>
                        <accessor count="33" source="#ID38" stride="2">
                            <param name="S" type="float"/>
                            <param name="T" type="float"/>
                        </accessor>
                    </technique_common>
                </source>
                <vertices id="ID34">
                    <input semantic="POSITION" source="#ID32"/>
                    <input semantic="NORMAL" source="#ID33"/>
                </vertices>
                <triangles count="27" material="Material3">
                    <input offset="0" semantic="VERTEX" source="#ID34"/>
                    <input offset="1" semantic="TEXCOORD" source="#ID35"/>
                    <p>0 0 1 1 2 2 1 1 0 0 3 3 8 4 9 5 10 6 9 5 8 4 11 7 11 7 8 4 12 8 11 7 12 8 13 9 13 9 12 8 14 10 13 9 14 10 15 11 24 12 25 13 26 14 25 13 24 12 27 15 25 13 27 15 28 16 26 14 29 17 30 18 29 17 26 14 25 13 30 18 29 17 28 16 30 18 28 16 27 15 38 19 39 20 40 21 39 20 38 19 41 22 46 23 47 24 48 25 47 24 46 23 49 26 49 26 46 23 50 27 49 26 50 27 51 28 47 24 52 29 48 25 52 29 47 24 51 28 52 29 51 28 53 30 53 30 51 28 54 31 54 31 51 28 55 32 55 32 51 28 50 27</p>
                </triangles>
                <triangles count="27" material="Material2">
                    <input offset="0" semantic="VERTEX" source="#ID34"/>
                    <p>4 5 6 7 6 5 16 17 18 17 19 18 18 19 20 19 21 20 20 21 22 23 22 21 31 32 33 32 34 33 35 36 34 33 34 36 32 31 35 31 37 35 36 35 37 42 43 44 45 44 43 56 57 58 58 57 59 59 57 60 60 57 61 57 62 61 63 61 62 57 56 64 56 65 64 64 65 62 63 62 65</p>
                </triangles>
            </mesh>
        </geometry>
        <geometry id="ID39">
            <mesh>
                <source id="ID40">
                    <float_array id="ID44" count="72">9.84252 17.71654 19.68504 0 -17.71654 19.68504 0 17.71654 19.68504 9.84252 -17.71654 19.68504 9.84252 -17.71654 19.68504 9.84252 17.71654 19.68504 0 -17.71654 19.68504 0 17.71654 19.68504 0 -17.71654 19.68504 9.84252 -7.105427e-15 1.968504 0 -7.105427e-15 1.968504 9.84252 -17.71654 19.68504 9.84252 -17.71654 19.68504 0 -17.71654 19.68504 9.84252 -7.105427e-15 1.968504 0 -7.105427e-15 1.968504 9.84252 -7.105427e-15 1.968504 0 17.71654 19.68504 0 -7.105427e-15 1.968504 9.84252 17.71654 19.68504 9.84252 17.71654 19.68504 9.84252 -7.105427e-15 1.968504 0 17.71654 19.68504 0 -7.105427e-15 1.968504</float_array>
                    <technique_common>
                        <accessor count="24" source="#ID44" stride="3">
                            <param name="X" type="float"/>
                            <param name="Y" type="float"/>
                            <param name="Z" type="float"/>
                        </accessor>
                    </technique_common>
                </source>
                <source id="ID41">
                    <float_array id="ID45" count="72">0 0 -1 0 0 -1 0 0 -1 0 0 -1 -0 -0 1 -0 -0 1 -0 -0 1 -0 -0 1 -0 0.7071068 0.7071068 -0 0.7071068 0.7071068 -0 0.7071068 0.7071068 -0 0.7071068 0.7071068 0 -0.7071068 -0.7071068 0 -0.7071068 -0.7071068 0 -0.7071068 -0.7071068 0 -0.7071068 -0.7071068 -0 -0.7071068 0.7071068 -0 -0.7071068 0.7071068 -0 -0.7071068 0.7071068 -0 -0.7071068 0.7071068 0 0.7071068 -0.7071068 0 0.7071068 -0.7071068 0 0.7071068 -0.7071068 0 0.7071068 -0.7071068</float_array>
                    <technique_common>
                        <accessor count="24" source="#ID45" stride="3">
                            <param name="X" type="float"/>
                            <param name="Y" type="float"/>
                            <param name="Z" type="float"/>
                        </accessor>
                    </technique_common>
                </source>
                <source id="ID43">
                    <float_array id="ID46" count="24">-0.2222222 0.4222222 0 0.02222222 0 0.4222222 -0.2222222 0.02222222 0 0.1414214 -0.2222222 -0.1414214 0 -0.1414214 -0.2222222 0.1414214 0.2222222 0.1728483 0 0.455691 0 0.1728483 0.2222222 0.455691</float_array>
                    <technique_common>
                        <accessor count="12" source="#ID46" stride="2">
                            <param name="S" type="float"/>
                            <param name="T" type="float"/>
                        </accessor>
                    </technique_common>
                </source>
                <vertices id="ID42">
                    <input semantic="POSITION" source="#ID40"/>
                    <input semantic="NORMAL" source="#ID41"/>
                </vertices>
                <triangles count="6" material="Material3">
                    <input offset="0" semantic="VERTEX" source="#ID42"/>
                    <input offset="1" semantic="TEXCOORD" source="#ID43"/>
                    <p>0 0 1 1 2 2 1 1 0 0 3 3 8 4 9 5 10 6 9 5 8 4 11 7 16 8 17 9 18 10 17 9 16 8 19 11</p>
                </triangles>
                <triangles count="6" material="Material2">
                    <input offset="0" semantic="VERTEX" source="#ID42"/>
                    <p>4 5 6 7 6 5 12 13 14 15 14 13 20 21 22 23 22 21</p>
                </triangles>
            </mesh>
        </geometry>
        <geometry id="ID47">
            <mesh>
                <source id="ID53">
                    <float_array id="ID57" count="18">0 17.71654 19.68504 0 -7.105427e-15 1.968504 0 -17.71654 19.68504 0 -17.71654 19.68504 0 -7.105427e-15 1.968504 0 17.71654 19.68504</float_array>
                    <technique_common>
                        <accessor count="6" source="#ID57" stride="3">
                            <param name="X" type="float"/>
                            <param name="Y" type="float"/>
                            <param name="Z" type="float"/>
                        </accessor>
                    </technique_common>
                </source>
                <source id="ID54">
                    <float_array id="ID58" count="18">-1 0 0 -1 0 0 -1 0 0 1 -0 -0 1 -0 -0 1 -0 -0</float_array>
                    <technique_common>
                        <accessor count="6" source="#ID58" stride="3">
                            <param name="X" type="float"/>
                            <param name="Y" type="float"/>
                            <param name="Z" type="float"/>
                        </accessor>
                    </technique_common>
                </source>
                <source id="ID56">
                    <float_array id="ID59" count="6">-0.225 0.25 9.023893e-17 0.025 0.225 0.25</float_array>
                    <technique_common>
                        <accessor count="3" source="#ID59" stride="2">
                            <param name="S" type="float"/>
                            <param name="T" type="float"/>
                        </accessor>
                    </technique_common>
                </source>
                <vertices id="ID55">
                    <input semantic="POSITION" source="#ID53"/>
                    <input semantic="NORMAL" source="#ID54"/>
                </vertices>
                <triangles count="1" material="Material3">
                    <input offset="0" semantic="VERTEX" source="#ID55"/>
                    <input offset="1" semantic="TEXCOORD" source="#ID56"/>
                    <p>0 0 1 1 2 2</p>
                </triangles>
                <triangles count="1" material="Material2">
                    <input offset="0" semantic="VERTEX" source="#ID55"/>
                    <p>3 4 5</p>
                </triangles>
            </mesh>
        </geometry>
        <geometry id="ID60">
            <mesh>
                <source id="ID61">
                    <float_array id="ID65" count="18">9.84252 17.71654 19.68504 9.84252 -17.71654 19.68504 9.84252 -7.105427e-15 1.968504 9.84252 -7.105427e-15 1.968504 9.84252 -17.71654 19.68504 9.84252 17.71654 19.68504</float_array>
                    <technique_common>
                        <accessor count="6" source="#ID65" stride="3">
                            <param name="X" type="float"/>
                            <param name="Y" type="float"/>
                            <param name="Z" type="float"/>
                        </accessor>
                    </technique_common>
                </source>
                <source id="ID62">
                    <float_array id="ID66" count="18">1 -0 -0 1 -0 -0 1 -0 -0 -1 0 0 -1 0 0 -1 0 0</float_array>
                    <technique_common>
                        <accessor count="6" source="#ID66" stride="3">
                            <param name="X" type="float"/>
                            <param name="Y" type="float"/>
                            <param name="Z" type="float"/>
                        </accessor>
                    </technique_common>
                </source>
                <source id="ID64">
                    <float_array id="ID67" count="6">0.225 0.25 -0.225 0.25 -9.023893e-17 0.025</float_array>
                    <technique_common>
                        <accessor count="3" source="#ID67" stride="2">
                            <param name="S" type="float"/>
                            <param name="T" type="float"/>
                        </accessor>
                    </technique_common>
                </source>
                <vertices id="ID63">
                    <input semantic="POSITION" source="#ID61"/>
                    <input semantic="NORMAL" source="#ID62"/>
                </vertices>
                <triangles count="1" material="Material3">
                    <input offset="0" semantic="VERTEX" source="#ID63"/>
                    <input offset="1" semantic="TEXCOORD" source="#ID64"/>
                    <p>0 0 1 1 2 2</p>
                </triangles>
                <triangles count="1" material="Material2">
                    <input offset="0" semantic="VERTEX" source="#ID63"/>
                    <p>3 4 5</p>
                </triangles>
            </mesh>
        </geometry>
    </library_geometries>
    <library_materials>
        <material id="ID4" name="Marble_20_1K">
            <instance_effect url="#ID5"/>
        </material>
        <material id="ID14" name="material">
            <instance_effect url="#ID13"/>
        </material>
        <material id="ID19" name="marble_black_01">
            <instance_effect url="#ID20"/>
        </material>
        <material id="ID48" name="Marble_06_1K">
            <instance_effect url="#ID49"/>
        </material>
    </library_materials>
    <library_effects>
        <effect id="ID5">
            <profile_COMMON>
                <newparam sid="ID7">
                    <surface type="2D">
                        <init_from>ID6</init_from>
                    </surface>
                </newparam>
                <newparam sid="ID8">
                    <sampler2D>
                        <source>ID7</source>
                    </sampler2D>
                </newparam>
                <technique sid="COMMON">
                    <lambert>
                        <diffuse>
                            <texture texture="ID8" texcoord="UVSET0"/>
                        </diffuse>
                    </lambert>
                </technique>
            </profile_COMMON>
        </effect>
        <effect id="ID13">
            <profile_COMMON>
                <technique sid="COMMON">
                    <lambert>
                        <diffuse>
                            <color>0.6352941 0.7176471 0.7764706 1</color>
                        </diffuse>
                    </lambert>
                </technique>
            </profile_COMMON>
        </effect>
        <effect id="ID20">
            <profile_COMMON>
                <newparam sid="ID22">
                    <surface type="2D">
                        <init_from>ID21</init_from>
                    </surface>
                </newparam>
                <newparam sid="ID23">
                    <sampler2D>
                        <source>ID22</source>
                    </sampler2D>
                </newparam>
                <technique sid="COMMON">
                    <lambert>
                        <diffuse>
                            <texture texture="ID23" texcoord="UVSET0"/>
                        </diffuse>
                    </lambert>
                </technique>
            </profile_COMMON>
        </effect>
        <effect id="ID49">
            <profile_COMMON>
                <newparam sid="ID51">
                    <surface type="2D">
                        <init_from>ID50</init_from>
                    </surface>
                </newparam>
                <newparam sid="ID52">
                    <sampler2D>
                        <source>ID51</source>
                    </sampler2D>
                </newparam>
                <technique sid="COMMON">
                    <lambert>
                        <diffuse>
                            <texture texture="ID52" texcoord="UVSET0"/>
                        </diffuse>
                    </lambert>
                </technique>
            </profile_COMMON>
        </effect>
    </library_effects>
    <library_images>
        <image id="ID6">
            <init_from>link_intel_body/Marble_20_1K.png</init_from>
        </image>
        <image id="ID21">
            <init_from>link_intel_body/marble_black_01.png</init_from>
        </image>
        <image id="ID50">
            <init_from>link_intel_body/Marble_06_1K.png</init_from>
        </image>
    </library_images>
    <scene>
        <instance_visual_scene url="#ID2"/>
    </scene>
</COLLADA>
