# Alias OBJ Model File
# Exported from SketchUp, (c) 2000-2012 Trimble Navigation Limited
# File units = meters

mtllib wall_right.mtl

g Mesh1 wall_right1 Model

usemtl Wood_OSB
v 9.5732e-19 0 2.75
vt 3.14081e-18 0
vn 0 0 1
v 0.25 -7.21911e-16 2.75
vt 0.82021 -2.8736e-15
v 0.25 4.21971 2.75
vt 0.82021 16.7967
v -3.26159e-16 4.21971 2.75
vt -1.07007e-15 16.7967
f 1/1/1 2/2/1 3/3/1 4/4/1 

v 9.5732e-19 0 0
vt 3.14081e-18 6.72437e-49
vn -1.86138e-15 -1 9.4802e-17
v 0.25 -7.21911e-16 0
vt 0.82021 -9.68193e-32
vt 0.82021 10.9465
vt 3.14081e-18 10.9465
f 5/5/2 6/6/2 2/7/2 1/8/2 

vt -3.14081e-18 -9.76533e-51
vn 6.13098e-17 4.17981e-17 -1
v -3.26159e-16 3.20542 1.18653e-16
vt 1.07007e-15 12.7593
v 0.25 3.20542 1.49308e-16
vt -0.82021 12.7593
vt -0.82021 -2.8736e-15
f 5/9/3 7/10/3 8/11/3 6/12/3 

vt 1.59371e-34 -2.59939e-34
vn -1 -5.07418e-17 -6.82137e-17
v 9.5732e-19 0.05 0.05
vt -0.164042 0.199027
vt -10.5165 4.72303e-16
f 5/13/4 9/14/4 7/15/4

v -2.91873e-18 0.05 2.7
vt -0.164042 10.7475
f 9/14/4 5/13/4 10/16/4

vt 1.59371e-34 10.9465
f 1/17/4 10/16/4 5/13/4

vt -13.8442 10.9465
f 10/16/4 1/17/4 4/18/4

v -2.35482e-16 3.05 2.7
vt -10.0066 10.7475
f 10/16/4 4/18/4 11/19/4

v -2.08196e-16 3.05 2.3
vt -10.0066 9.15525
f 11/19/4 4/18/4 12/20/4

v -3.26159e-16 3.23202 1.98387
vt -10.6037 7.89687
f 12/20/4 4/18/4 13/21/4

vt -0.82021 19.9812
vn -3.03812e-17 0.612906 -0.790155
v 0.25 3.23202 1.98387
vt -0.82021 15.0055
vt 5.44458e-16 15.0055
vt 3.83831e-16 19.9812
f 3/22/5 14/23/5 13/24/5 4/25/5 

vt 13.8442 10.9465
vn 1 1.38397e-15 -1.96595e-15
v 0.25 3.05 2.7
vt 10.0066 10.7475
vt 10.6037 7.89687
f 3/26/6 15/27/6 14/28/6

v 0.25 0.05 2.7
vt 0.164042 10.7475
f 3/26/6 16/29/6 15/27/6

vt -3.50362e-15 10.9465
f 2/30/6 16/29/6 3/26/6

v 0.25 0.05 0.45
vt 0.164042 1.79125
f 16/29/6 2/30/6 17/31/6

v 0.25 0.05 0.05
vt 0.164042 0.199027
f 17/31/6 2/30/6 18/32/6

vt -3.50362e-15 1.95639e-15
f 6/33/6 18/32/6 2/30/6

vt 10.5165 2.55072e-15
f 18/32/6 6/33/6 8/34/6

v 0.25 3.05 0.05
vt 10.0066 0.199027
f 18/32/6 8/34/6 19/35/6

v 0.25 3.05 0.45
vt 10.0066 1.79125
f 19/35/6 8/34/6 20/36/6

v 0.25 3.07294 0.717112
vt 10.0818 2.8545
f 20/36/6 8/34/6 21/37/6

v 0.25 3.20542 0.363659
vt 10.5165 1.44756
f 21/37/6 8/34/6 22/38/6

vt 1.07007e-15 4.72303e-16
vn 0 1 0
v 3.95753e-16 3.20542 0.363659
vt -1.2984e-15 1.44756
vt -0.82021 1.44756
vt -0.82021 5.94327e-16
f 7/39/7 23/40/7 22/41/7 8/42/7 

v 3.95753e-16 3.07294 0.717112
vt -10.0818 2.8545
vt -10.5165 1.44756
f 7/15/4 24/43/4 23/44/4

v 9.5732e-19 3.05 0.05
vt -10.0066 0.199027
f 7/15/4 25/45/4 24/43/4

f 7/15/4 9/14/4 25/45/4

usemtl Terrazzo_Light_Blue
vt -0.18072 0.164042
vn -1 9.04785e-34 -6.82137e-17
v -2.63282e-17 0.05 0.45
vt -0.18072 1.47638
v -2.63282e-17 3.05 0.45
vt -11.0239 1.47638
vt -11.0239 0.164042
f 9/46/8 26/47/8 27/48/8 25/49/8 

usemtl Wood_OSB
v 2.43667e-17 0.05 2.3
vt -0.164042 9.15525
vt -0.164042 1.79125
f 9/14/4 28/50/4 26/51/4

f 9/14/4 10/16/4 28/50/4

usemtl Terrazzo_Light_Blue
vt -0.18072 7.54593
vn -1 -7.7521e-17 -6.82137e-17
vt -0.18072 8.85827
vt -11.0239 8.85827
vt -11.0239 7.54593
f 28/52/9 10/53/9 11/54/9 12/55/9 

usemtl Wood_OSB
v 0.25 0.05 2.3
vt -0.82021 9.15525
vn 2.86509e-15 1 -2.70888e-30
vt 3.90051e-16 9.15525
vt 4.7957e-16 10.7475
vt -0.82021 10.7475
f 29/56/10 28/57/10 10/58/10 16/59/10 

v 0.25 3.05 2.3
vt 0.82021 12.1407
vt -6.83059e-16 12.1407
vt 7.99434e-17 0.199027
vt 0.82021 0.199027
f 30/60/1 12/61/1 28/62/1 29/63/1 

vt -2.95785e-14 9.15525
vn -2.88765e-15 -1 2.73021e-30
vt 0.82021 9.15525
vt 0.82021 10.7475
vt -2.9668e-14 10.7475
f 12/64/11 30/65/11 15/66/11 11/67/11 

vt 10.0066 9.15525
f 30/68/6 14/28/6 15/27/6

v 0.25 2.75 0.935763
vt 9.02231 3.72485
f 30/68/6 31/69/6 14/28/6

vt 0.164042 9.15525
f 31/69/6 30/68/6 29/70/6

usemtl Terrazzo_Light_Blue
vt 0.18072 8.85827
vn 1 -6.33349e-33 -1.91758e-15
vt 0.18072 7.54593
vt 11.0239 7.54593
vt 11.0239 8.85827
f 16/71/12 29/72/12 30/73/12 15/74/12 

usemtl Wood_OSB
f 16/29/6 17/31/6 29/70/6

f 20/36/6 29/70/6 17/31/6

f 29/70/6 20/36/6 31/69/6

f 31/69/6 20/36/6 21/37/6

vt -0.82021 -6.97602
vn 7.66339e-18 0.560643 0.828058
vt -0.82021 -8.52844
vt -1.16059e-15 -8.52844
v -1.04807e-15 2.75 0.935763
vt 3.56188e-15 -6.97602
f 31/75/13 21/76/13 24/77/13 32/78/13 

vt -0.82021 -1.62003
vn 1.70697e-16 0.93639 0.350961
vt -0.82021 -3.12254
vt 6.18669e-16 -3.12254
vt 5.3944e-16 -1.62003
f 21/79/14 22/80/14 23/81/14 24/82/14 

vt -10.0066 1.79125
vt -9.02231 3.72485
f 27/83/4 32/84/4 24/43/4

f 32/84/4 27/83/4 26/51/4

vt 8.63785e-17 12.1407
vn 0 0 -1
vt -0.82021 12.1407
vt -0.82021 0.199027
vt 8.63785e-17 0.199027
f 27/85/15 20/86/15 17/87/15 26/88/15 

vt -2.88923e-14 0.199027
vt 0.82021 1.79125
vt -2.89818e-14 1.79125
f 25/89/11 19/63/11 20/90/11 27/91/11 

vt 3.14081e-18 12.1407
vt 3.14081e-18 0.199027
f 19/60/1 25/92/1 9/93/1 18/63/1 

vt 5.60074e-16 1.79125
vn 2.88765e-15 1 -2.73021e-30
vt -0.82021 1.79125
vt 4.70554e-16 0.199027
f 26/94/16 17/95/16 18/87/16 9/96/16 

usemtl Terrazzo_Light_Blue
vt 0.18072 0.164042
vt 11.0239 0.164042
vt 11.0239 1.47638
vt 0.18072 1.47638
f 18/97/12 19/98/12 20/99/12 17/100/12 

usemtl Wood_OSB
f 27/83/4 24/43/4 25/45/4

f 26/51/4 12/20/4 32/84/4

f 12/20/4 26/51/4 28/50/4

f 32/84/4 12/20/4 13/21/4

v -3.26159e-16 3.68996 1.69771
vt -12.1062 6.75783
f 32/84/4 13/21/4 33/101/4

vt -0.82021 -6.72568
vn -2.34734e-17 0.529914 0.848052
v 0.25 3.68996 1.69771
vt -0.82021 -8.87517
vt 5.33811e-16 -8.87517
vt 6.00364e-16 -6.72568
f 14/102/17 34/103/17 33/104/17 13/105/17 

vt 12.1062 6.75783
f 14/28/6 31/69/6 34/106/6

vt -0.82021 15.6656
vn 1.63033e-18 0.629711 -0.776829
vt -0.82021 10.8491
vt 3.46191e-15 10.8491
vt 1.10142e-15 15.6656
f 34/107/18 31/108/18 32/109/18 33/110/18 

vt 7.72578e-16 12.1407
vt 9.57588e-18 0.199027
f 11/111/15 15/86/15 16/87/15 10/112/15 

g Mesh2 wall_right_art1 Model

usemtl FrontColor
v 1.37043e-16 0.05 0.5
vt 8.47498e-18 -7.77156e-18
vn 1 -4.30529e-17 3.94795e-17
v 1.82146e-16 2.65 0.5
vt 102.362 -7.77156e-18
v 1.80411e-16 2.65 2.25
vt 102.362 68.8976
v 0 0.05 2.25
vt 8.47498e-18 68.8976
f 35/113/19 36/114/19 37/115/19 38/116/19 

vt -0.19685 102.362
vt -0.19685 0
v -0.005 0.05 0.5
vt -5.41234e-15 0
v -0.005 2.65 0.5
vt -7.18869e-15 102.362
f 36/117/15 35/118/15 39/119/15 40/120/15 

vt 0.19685 0
vn 0 -1 0
vt 0.19685 68.8976
v -0.005 0.05 2.25
vt 0 68.8976
vt 5.41234e-15 0
f 35/121/20 38/122/20 41/123/20 39/124/20 

vt 0.19685 -3.79679e-14
vn -1.01446e-29 5.51077e-16 1
vt 0.19685 102.362
v -0.005 2.65 2.25
vt 7.10543e-15 102.362
vt 6.98942e-28 -3.79679e-14
f 38/125/21 37/126/21 42/127/21 41/128/21 

vt -0.19685 68.8976
vt -7.18869e-15 0
vt -7.10543e-15 68.8976
f 37/129/7 36/118/7 40/130/7 42/131/7 

usemtl wall_right_art
vt -0.990476 -1.61023e-33
vn -1 4.30529e-17 -3.98824e-17
vt -2.25472e-33 -3.13301e-33
vt 0 1
vt -0.990476 1
f 40/132/22 39/133/22 41/134/22 42/135/22 

