# Alias OBJ Model File
# Exported from SketchUp, (c) 2000-2012 Trimble Navigation Limited
# File units = meters

mtllib link_eval_weight_balance_body.mtl

g Mesh1 Model

usemtl Formica_Speckled_Grey
v -1 -0.25 -4.51195e-17
vt 3.28084 -0.82021
vn 0 0 -1
v -1 0.75 -4.51195e-17
vt 3.28084 2.46063
v 1 0.75 -4.51195e-17
vt -3.28084 2.46063
v 1 -0.25 -4.51195e-17
vt -3.28084 -0.82021
f 1/1/1 2/2/1 3/3/1 4/4/1 

vt 0.82021 -1.4803e-16
vn -1 0 0
v -1 -0.25 0.25
vt 0.82021 0.82021
v -1 0 0.25
vt 0 0.82021
v -1 0.75 0.25
vt -2.46063 0.82021
vt -2.46063 -1.4803e-16
f 1/5/2 5/6/2 6/7/2 7/8/2 2/9/2 

vt -3.28084 -5.13692e-16
vn -1.18363e-16 -1 4.45816e-16
vt 3.28084 -5.13692e-16
v 1 -0.25 0.25
vt 3.28084 0.82021
v 0.34375 -0.25 2
vt 1.12779 6.56168
v 0.25 -0.25 2
vt 0.82021 6.56168
v -0.34375 -0.25 2
vt -1.12779 6.56168
vt -3.28084 0.82021
f 1/10/3 4/11/3 8/12/3 9/13/3 10/14/3 11/15/3 5/16/3 

v 1 0 0.25
vn 1 0 0
vt -0.82021 0.82021
vt -0.82021 -1.4803e-16
vt 2.46063 -1.4803e-16
v 1 0.75 0.25
vt 2.46063 0.82021
f 12/7/4 8/17/4 4/18/4 3/19/4 13/20/4 

usemtl Terrazzo_Light_Blue
v 0.34375 0 2
vt 6.14596e-30 5.7479
vn 0.936329 -4.6317e-30 0.351123
vt -0.903598 5.7479
vt -0.903598 -0.383993
vt 1.78792e-29 -0.383993
f 14/21/5 9/22/5 8/23/5 12/24/5 

vt 1.24245 0
vn 0 0 1
v -2.52669e-15 4.51195e-17 2
vt -9.13245e-15 1.4803e-16
v 0.196429 -0.196429 2
vt 0.70997 -0.644451
vt 1.24245 -0.82021
f 14/25/6 15/26/6 16/27/6 9/28/6 

vt -1.24245 6.56168
vn 3.2387e-32 1 -8.59418e-18
v -0.34375 0 2
vt 1.24245 6.56168
vt 9.13245e-15 6.56168
f 14/29/7 17/30/7 15/31/7

v 0 0 1.75
vt 0 5.74147
f 14/29/7 18/32/7 17/30/7

v 0.0647048 0 1.74148
vt -0.233868 5.71352
f 14/29/7 19/33/7 18/32/7

v 0.125 0 1.71651
vt -0.451799 5.63158
f 14/29/7 20/34/7 19/33/7

v 0.176777 0 1.67678
vt -0.63894 5.50124
f 14/29/7 21/35/7 20/34/7

v 0.216506 0 1.625
vt -0.782539 5.33136
f 14/29/7 22/36/7 21/35/7

v 0.241481 0 1.5647
vt -0.872809 5.13355
f 14/29/7 23/37/7 22/36/7

v 0.25 0 1.5
vt -0.903598 4.92126
f 14/29/7 24/38/7 23/37/7

v 0.241481 0 1.4353
vt -0.872809 4.70897
f 14/29/7 25/39/7 24/38/7

vt -3.61439 0.82021
f 12/40/7 25/39/7 14/29/7

v 0.216506 0 1.375
vt -0.782539 4.51115
f 25/39/7 12/40/7 26/41/7

v 0.176777 0 1.32322
vt -0.63894 4.34128
f 26/41/7 12/40/7 27/42/7

v 0.125 0 1.28349
vt -0.451799 4.21094
f 27/42/7 12/40/7 28/43/7

v 0.0647048 0 1.25852
vt -0.233868 4.129
f 28/43/7 12/40/7 29/44/7

v 0 0 1.25
vt 0 4.10105
f 29/44/7 12/40/7 30/45/7

v -0.0647048 0 1.25852
vt 0.233868 4.129
f 12/40/7 31/46/7 30/45/7

v -0.125 0 1.28349
vt 0.451799 4.21094
f 12/40/7 32/47/7 31/46/7

v -0.176777 0 1.32322
vt 0.63894 4.34128
f 12/40/7 33/48/7 32/47/7

vt 3.61439 0.82021
f 6/49/7 33/48/7 12/40/7

v -0.216506 0 1.375
vt 0.782539 4.51115
f 33/48/7 6/49/7 34/50/7

v -0.241481 0 1.4353
vt 0.872809 4.70897
f 34/50/7 6/49/7 35/51/7

f 35/51/7 6/49/7 17/30/7

vt 0.903598 -0.383993
vn -0.936329 0 0.351123
vt 0.903598 5.7479
vt 0 5.7479
vt 0 -0.383993
f 5/52/8 11/53/8 17/54/8 6/55/8 

usemtl Formica_Speckled_Grey
v -0.5 0.5 2
vt 8.2021 1.64042
vt 6.56168 1.4803e-16
vt 7.68947 0
vt 7.68947 -0.82021
vt 5.74147 -0.82021
v 0.5 -0.5 2
vt 4.92126 -1.64042
v -0.5 -0.5 2
vt 8.2021 -1.64042
f 36/56/1 15/57/1 17/58/1 11/59/1 10/60/1 37/61/1 38/62/1 

vt 5.43389 -0.82021
vt 5.43389 0
v 0.5 0.5 2
vt 4.92126 1.64042
f 37/61/1 10/60/1 9/63/1 14/64/1 15/57/1 36/56/1 39/65/1 

usemtl Terrazzo_Light_Blue
vt -0.70997 -0.644451
vt -1.24245 -0.82021
vt -0.903598 -0.82021
f 16/66/1 9/67/1 10/68/1

f 10/68/1 11/28/1 17/25/1 16/66/1 

vt -1.24245 0
f 17/69/6 16/27/6 15/26/6

usemtl Formica_Speckled_Grey
vt 4.92126 -0.164042
vn 0 1 0
vt 8.2021 -0.164042
v -0.5 0.5 2.6
vt 8.2021 1.80446
v 0.5 0.5 2.6
vt 4.92126 1.80446
f 39/70/9 36/71/9 40/72/9 41/73/9 

vt -1.64042 -0.164042
vt 1.64042 -0.164042
v -0.5 -0.5 2.6
vt 1.64042 1.80446
vt -1.64042 1.80446
f 36/74/2 38/75/2 42/76/2 40/77/2 

vt -8.2021 -0.164042
vn 0 -1 0
vt -4.92126 -0.164042
v 0.5 -0.5 2.6
vt -4.92126 1.80446
vt -8.2021 1.80446
f 38/78/10 37/79/10 43/80/10 42/81/10 

f 37/74/4 39/75/4 41/76/4 43/77/4 

vt -4.92126 1.64042
v 0.4 0.4 2.6
vt -5.24934 1.31234
vt -4.92126 -1.64042
f 41/82/6 44/83/6 43/84/6

v -0.4 0.4 2.6
vt -7.87402 1.31234
f 41/82/6 45/85/6 44/83/6

vt -8.2021 1.64042
f 40/86/6 45/85/6 41/82/6

v -0.4 -0.4 2.6
vt -7.87402 -1.31234
f 45/85/6 40/86/6 46/87/6

vt -8.2021 -1.64042
f 42/88/6 46/87/6 40/86/6

f 46/87/6 42/88/6 43/84/6

v 0.4 -0.4 2.6
vt -5.24934 -1.31234
f 46/87/6 43/84/6 47/89/6

f 47/89/6 43/84/6 44/83/6

usemtl Terrazzo_Light_Blue
v 0.4 0.4 2.1
vt -1.44576 0.164042
v 0.4 -0.4 2.1
vt 1.44576 0.164042
vt 1.44576 1.80446
vt -1.44576 1.80446
f 48/90/2 49/91/2 47/92/2 44/93/2 

usemtl Formica_Laminate_Light
vt -1.74978 0.437445
v -0.4 0.4 2.1
vt -2.62467 0.437445
v -0.4 -0.4 2.1
vt -2.62467 -0.437445
vt -1.74978 -0.437445
f 48/94/6 50/95/6 51/96/6 49/97/6 

usemtl Terrazzo_Light_Blue
vt -8.67454 0.164042
vt -5.78303 0.164042
vt -5.78303 1.80446
vt -8.67454 1.80446
f 50/98/10 48/99/10 44/100/10 45/101/10 

f 51/90/4 50/91/4 45/92/4 46/93/4 

vt 5.78303 0.164042
vt 8.67454 0.164042
vt 8.67454 1.80446
vt 5.78303 1.80446
f 49/102/9 51/103/9 46/104/9 47/105/9 

v -0.25 0 1.5
vt 0.903598 4.92126
f 35/51/7 17/30/7 52/106/7

v -0.241481 0 1.5647
vt 0.872809 5.13355
f 52/106/7 17/30/7 53/107/7

v -0.216506 0 1.625
vt 0.782539 5.33136
f 53/107/7 17/30/7 54/108/7

v -0.176777 0 1.67678
vt 0.63894 5.50124
f 54/108/7 17/30/7 55/109/7

v -0.125 0 1.71651
vt 0.451799 5.63158
f 55/109/7 17/30/7 56/110/7

v -0.0647048 0 1.74148
vt 0.233868 5.71352
f 56/110/7 17/30/7 57/111/7

f 57/111/7 17/30/7 18/32/7

usemtl Metal_Rusted
vt -0.273403 2.80729
vt -0.141524 2.75267
vt 0 2.73403
vt 0.141524 2.75267
vt 0.273403 2.80729
vt 0.386651 2.89419
vt 0.473548 3.00744
vt 0.528175 3.13932
vt 0.546807 3.28084
vt 0.528175 3.42236
vt 0.473548 3.55424
vt 0.386651 3.66749
vt 0.273403 3.75439
vt 0.141524 3.80901
vt 0 3.82765
vt -0.141524 3.80901
vt -0.273403 3.75439
vt -0.386651 3.66749
vt -0.473548 3.55424
vt -0.528175 3.42236
vt -0.546807 3.28084
vt -0.528175 3.13932
vt -0.473548 3.00744
vt -0.386651 2.89419
f 28/112/9 29/113/9 30/114/9 31/115/9 32/116/9 33/117/9 34/118/9 35/119/9 52/120/9 53/121/9 54/122/9 55/123/9 56/124/9 57/125/9 18/126/9 19/127/9 20/128/9 21/129/9 22/130/9 23/131/9 24/132/9 25/133/9 26/134/9 27/135/9 

usemtl Formica_Laminate_Light
vt -1.09361 0.82021
vt -1.09361 0
vt 1.09361 0
vt 1.09361 0.82021
f 7/136/6 6/137/6 12/138/6 13/139/6 

usemtl Formica_Speckled_Grey
vt -3.28084 -1.4803e-16
vt 3.28084 -1.4803e-16
f 3/140/9 2/141/9 7/12/9 13/16/9 

